<?xml version="1.0" encoding="iso-8859-1"?>
<!-- Uploaded to: SVG Repo, www.svgrepo.com, Generator: SVG Repo Mixer Tools -->
<svg height="800px" width="800px" version="1.1" id="Layer_1" xmlns="http://www.w3.org/2000/svg" xmlns:xlink="http://www.w3.org/1999/xlink" 
	 viewBox="0 0 512 512" xml:space="preserve">
<g>
	<path style="fill:#FBD971;" d="M481.627,286.373C481.627,410.98,380.607,512,256,512S30.373,410.98,30.373,286.373
		S131.393,60.746,256,60.746S481.627,161.766,481.627,286.373"/>
	<g>
		<path style="fill:#E57E25;" d="M306.835,370.517c-3.254,0-6.361-1.831-7.845-4.964c-2.057-4.33-0.2-9.511,4.131-11.559
			c14.631-6.916,27.422-16.853,38.018-29.514c3.072-3.679,8.539-4.174,12.219-1.085c3.679,3.072,4.165,8.548,1.093,12.227
			c-12.219,14.596-26.988,26.051-43.911,34.061C309.343,370.257,308.084,370.517,306.835,370.517"/>
		<path style="fill:#E57E25;" d="M205.157,370.517c-1.25,0-2.508-0.26-3.705-0.833c-16.931-8.018-31.718-19.491-43.937-34.104
			c-3.072-3.679-2.586-9.155,1.093-12.236c3.688-3.072,9.155-2.569,12.219,1.093c10.604,12.687,23.404,22.632,38.044,29.557
			c4.33,2.048,6.187,7.229,4.131,11.559C211.518,368.686,208.411,370.517,205.157,370.517"/>
		<path style="fill:#E57E25;" d="M229.966,86.78c-4.79,0-8.678-3.879-8.678-8.678C221.288,35.033,256.33,0,299.39,0
			c4.79,0,8.678,3.879,8.678,8.678s-3.888,8.678-8.678,8.678c-33.497,0-60.746,27.257-60.746,60.746
			C238.644,82.901,234.756,86.78,229.966,86.78"/>
	</g>
	<g>
		<path style="fill:#FFFFFF;" d="M221.288,208.271c0,19.17-11.654,34.712-26.034,34.712c-14.379,0-26.034-15.542-26.034-34.712
			s11.655-34.712,26.034-34.712C209.634,173.559,221.288,189.102,221.288,208.271"/>
		<path style="fill:#FFFFFF;" d="M342.78,208.271c0,19.17-11.655,34.712-26.034,34.712s-26.034-15.542-26.034-34.712
			s11.655-34.712,26.034-34.712S342.78,189.102,342.78,208.271"/>
	</g>
	<path style="fill:#E57E25;" d="M264.678,86.78c-4.79,0-8.678-3.879-8.678-8.678c0-23.925,19.465-43.39,43.39-43.39
		c4.79,0,8.678,3.879,8.678,8.678s-3.888,8.678-8.678,8.678c-14.353,0-26.034,11.681-26.034,26.034
		C273.356,82.901,269.468,86.78,264.678,86.78"/>
	<path style="fill:#FB7B76;" d="M308.068,373.153c0,28.759-23.309,52.068-52.068,52.068s-52.068-23.309-52.068-52.068
		c0-28.759,23.309-52.068,52.068-52.068S308.068,344.394,308.068,373.153"/>
	<path style="fill:#CC5E5E;" d="M282.034,425.22c0,28.759-11.655,52.068-26.034,52.068s-26.034-23.309-26.034-52.068
		c0-28.759,11.655-52.068,26.034-52.068S282.034,396.462,282.034,425.22"/>
</g>
</svg>