<?xml version="1.0" ?><!-- Uploaded to: SVG Repo, www.svgrepo.com, Generator: SVG Repo Mixer Tools -->
<svg fill="#000000" width="800px" height="800px" viewBox="0 0 16 16" data-name="Layer 1" id="Layer_1" xmlns="http://www.w3.org/2000/svg"><title/><path d="M8,1A7,7,0,1,1,1,8,7.008,7.008,0,0,1,8,1M8,0a8,8,0,1,0,8,8A8,8,0,0,0,8,0Z"/><path d="M8.407,12a4.633,4.633,0,0,1-1.29-.178C7.058,11.8,7,11.774,7,11.717V11.2a.1.1,0,0,1,.105-.1h.012c.362.027.858.053,1.214.053s.5-.126.5-.336v-.084c0-.194-.064-.373-.455-.373H7.4a.112.112,0,0,1-.117-.105V9.7A.108.108,0,0,1,7.4,9.6h.969c.367,0,.455-.205.455-.389V9.123c0-.21-.152-.273-.45-.273-.4,0-.852.032-1.231.058H7.134a.106.106,0,0,1-.111-.1V8.294c0-.058.065-.084.123-.105A4.112,4.112,0,0,1,8.377,8c.987,0,1.611.268,1.611,1.055v.074a.982.982,0,0,1-.531.834.848.848,0,0,1,.543.772v.084C10,11.638,9.387,12,8.407,12Z"/><ellipse cx="10" cy="5.5" rx="1" ry="1.5"/><path d="M7,5.914H7a.487.487,0,0,0-.039-.191.492.492,0,0,0-.107-.162L5.439,4.146a.5.5,0,1,0-.707.708l.561.56H4.5a.5.5,0,0,0-.5.5H4a.5.5,0,0,0,.5.5H6.507a.508.508,0,0,0,.184-.037A.506.506,0,0,0,7,5.916Z"/></svg>