<?xml version="1.0" ?>
<!-- Uploaded to: SVG Repo, www.svgrepo.com, Generator: SVG Repo Mixer Tools -->
<svg fill="#000000" width="800px" height="800px" viewBox="0 0 64 64" xmlns="http://www.w3.org/2000/svg">
<g data-name="Layer 34" id="Layer_34">
<path d="M32,2.5A29,29,0,0,0,17.5,56.6c.65.39,1.32.74,2,1.07a29,29,0,0,0,4.95,1.83c.67.19,1.36.34,2.05.47a28.8,28.8,0,0,0,11,0c.69-.13,1.38-.28,2-.47a29,29,0,0,0,5-1.83c.68-.33,1.35-.68,2-1.07A29,29,0,0,0,32,2.5ZM19.5,55.42V22.57l.43-.17a5.56,5.56,0,0,1,4.11,0l.09,0,.37.14V57.43A25.62,25.62,0,0,1,19.5,55.42ZM37.5,44A32.08,32.08,0,0,0,32,43.5a32.08,32.08,0,0,0-5.5.53v-7.7A9.89,9.89,0,0,1,32,34.5a9.89,9.89,0,0,1,5.5,1.83ZM32,58.5a26.25,26.25,0,0,1-5.5-.57V46.06A30.1,30.1,0,0,1,32,45.5a30.1,30.1,0,0,1,5.5.56V57.93A26.25,26.25,0,0,1,32,58.5Zm7.5-1.07V22.58l.44-.18a5.54,5.54,0,0,1,4.12,0l.44.18V55.42A25.62,25.62,0,0,1,39.5,57.43Zm7-3.17V23.38l.13.05a1,1,0,0,0,.37.07,1,1,0,0,0,.37-1.93l-2.56-1a7.48,7.48,0,0,0-5.62,0l-2.56,1a1,1,0,0,0,.74,1.86l.13-.05V34A11.45,11.45,0,0,0,32,32.5,11.45,11.45,0,0,0,26.5,34V23.38l.13.05a1,1,0,0,0,.37.07,1,1,0,0,0,.37-1.93l-2.46-1-.1,0a7.67,7.67,0,0,0-5.69,0l-2.49,1a1,1,0,0,0,.74,1.86l.13-.05V54.26a27,27,0,1,1,29,0Z"/>
</g>
</svg>