<?xml version="1.0" ?>
<!-- Uploaded to: SVG Repo, www.svgrepo.com, Generator: SVG Repo Mixer Tools -->
<svg fill="#000000" width="800px" height="800px" viewBox="0 0 64 64" xmlns="http://www.w3.org/2000/svg">
<g data-name="Layer 28" id="Layer_28">
<path d="M32,3A29,29,0,1,0,61,32,29,29,0,0,0,32,3Zm0,56A27,27,0,1,1,59,32,27,27,0,0,1,32,59ZM43,37a1,1,0,0,1-1,1H22a1,1,0,0,1,0-2H42A1,1,0,0,1,43,37Zm5.71-19.29L44.41,22l4.3,4.29a1,1,0,0,1,0,1.42,1,1,0,0,1-1.42,0L43,23.41l-4.29,4.3a1,1,0,0,1-1.42,0,1,1,0,0,1,0-1.42L41.59,22l-4.3-4.29a1,1,0,0,1,1.42-1.42L43,20.59l4.29-4.3a1,1,0,0,1,1.42,1.42ZM23,23.41l-4.29,4.3a1,1,0,0,1-1.42,0,1,1,0,0,1,0-1.42L21.59,22l-4.3-4.29a1,1,0,0,1,1.42-1.42L23,20.59l4.29-4.3a1,1,0,0,1,1.42,1.42L24.41,22l4.3,4.29a1,1,0,0,1,0,1.42,1,1,0,0,1-1.42,0Z"/>
</g>
</svg>