<?xml version="1.0" ?>
<!-- Uploaded to: SVG Repo, www.svgrepo.com, Generator: SVG Repo Mixer Tools -->
<svg fill="#000000" width="800px" height="800px" viewBox="0 0 64 64" xmlns="http://www.w3.org/2000/svg">
<g data-name="Layer 27" id="Layer_27">
<path d="M32,3A29,29,0,1,0,61,32,29,29,0,0,0,32,3Zm0,56A27,27,0,1,1,59,32,27,27,0,0,1,32,59ZM47.71,17.71,43.41,22l4.3,4.29a1,1,0,0,1,0,1.42,1,1,0,0,1-1.42,0L42,23.41l-4.29,4.3a1,1,0,0,1-1.42,0,1,1,0,0,1,0-1.42L40.59,22l-4.3-4.29a1,1,0,0,1,1.42-1.42L42,20.59l4.29-4.3a1,1,0,0,1,1.42,1.42ZM22,23.41l-4.29,4.3a1,1,0,0,1-1.42,0,1,1,0,0,1,0-1.42L20.59,22l-4.3-4.29a1,1,0,0,1,1.42-1.42L22,20.59l4.29-4.3a1,1,0,0,1,1.42,1.42L23.41,22l4.3,4.29a1,1,0,0,1,0,1.42,1,1,0,0,1-1.42,0ZM32,33c-3.31,0-6,3.36-6,7.5S28.69,48,32,48s6-3.36,6-7.5S35.31,33,32,33Zm0,13c-2.21,0-4-2.47-4-5.5S29.79,35,32,35s4,2.47,4,5.5S34.21,46,32,46Z"/>
</g>
</svg>