<?xml version="1.0" ?>
<!-- Uploaded to: SVG Repo, www.svgrepo.com, Generator: SVG Repo Mixer Tools -->
<svg width="800px" height="800px" viewBox="0 0 64 64" enable-background="new 0 0 64 64" id="Filled_Outline_00000081607312705973271110000009714898175699931553_" version="1.1" xml:space="preserve" xmlns="http://www.w3.org/2000/svg" xmlns:xlink="http://www.w3.org/1999/xlink">
<g>
<g>
<path d="M41,17h-0.1c-2.705-1.27-5.714-2-8.9-2s-6.195,0.73-8.9,2H23C10.85,17,1,26.85,1,39v0    c0,12.15,9.85,22,22,22h0.1c2.705,1.27,5.714,2,8.9,2s6.195-0.73,8.9-2H41c12.15,0,22-9.85,22-22v0C63,26.85,53.15,17,41,17z" fill="#FF6D1F"/>
<path d="M21,4L21,4c0,1.657,1.343,3,3,3h0c2.761,0,5,2.239,5,5v3h6v-3c0-6.075-4.925-11-11-11h0    C22.343,1,21,2.343,21,4z" fill="#A69D24"/>
<path d="M41,54l-3,3l-3-3l-3,3l-3-3l-3,3l-3-3l0-17l3,3l3-3l3,3l3-3l3,3l3-3L41,54z M22,33c2.761,0,5-4,5-4    s-2.239-4-5-4s-5,4-5,4S19.239,33,22,33z M42,33c2.761,0,5-4,5-4s-2.239-4-5-4s-5,4-5,4S39.239,33,42,33z" fill="#732002"/>
</g>
<g>
<path d="M41.383,36.076c-0.374-0.155-0.804-0.069-1.09,0.217L38,38.586l-2.293-2.293    c-0.391-0.391-1.023-0.391-1.414,0L32,38.586l-2.293-2.293c-0.391-0.391-1.023-0.391-1.414,0L26,38.586l-2.293-2.293    c-0.286-0.286-0.715-0.372-1.09-0.217C22.243,36.23,22,36.596,22,37v17c0,0.266,0.105,0.52,0.293,0.707l3,3    c0.391,0.391,1.023,0.391,1.414,0L29,55.414l2.293,2.293c0.391,0.391,1.023,0.391,1.414,0L35,55.414l2.293,2.293    C37.488,57.902,37.744,58,38,58s0.512-0.098,0.707-0.293l3-3C41.895,54.52,42,54.266,42,54V37    C42,36.596,41.757,36.23,41.383,36.076z M40,53.586l-2,2l-2.293-2.293C35.512,53.098,35.256,53,35,53s-0.512,0.098-0.707,0.293    L32,55.586l-2.293-2.293c-0.391-0.391-1.023-0.391-1.414,0L26,55.586l-2-2V39.414l1.293,1.293c0.391,0.391,1.023,0.391,1.414,0    L29,38.414l2.293,2.293c0.391,0.391,1.023,0.391,1.414,0L35,38.414l2.293,2.293c0.391,0.391,1.023,0.391,1.414,0L40,39.414V53.586    z" fill="#260A04"/>
<path d="M27.873,29.488c0.169-0.304,0.169-0.673,0-0.977C27.614,28.05,25.254,24,22,24s-5.614,4.05-5.873,4.512    c-0.169,0.304-0.169,0.673,0,0.977C16.386,29.95,18.746,34,22,34S27.614,29.95,27.873,29.488z M18.174,29    c0.752-1.139,2.301-3,3.826-3s3.074,1.861,3.826,3c-0.752,1.139-2.301,3-3.826,3S18.926,30.139,18.174,29z" fill="#260A04"/>
<path d="M42,24c-3.254,0-5.614,4.05-5.873,4.512c-0.169,0.304-0.169,0.673,0,0.977C36.386,29.95,38.746,34,42,34    s5.614-4.05,5.873-4.512c0.169-0.304,0.169-0.673,0-0.977C47.614,28.05,45.254,24,42,24z M42,32c-1.525,0-3.074-1.861-3.826-3    c0.752-1.139,2.301-3,3.826-3s3.074,1.861,3.826,3C45.074,30.139,43.525,32,42,32z" fill="#260A04"/>
<path d="M64,39c0-12.63-10.233-22.911-22.843-22.996c-1.623-0.746-3.351-1.3-5.157-1.633V12    c0-6.617-5.383-12-12-12c-2.206,0-4,1.794-4,4s1.794,4,4,4s4,1.794,4,4v2.371c-1.805,0.333-3.534,0.887-5.157,1.633    C10.233,16.089,0,26.37,0,39s10.233,22.911,22.843,22.996C25.633,63.279,28.733,64,32,64s6.367-0.721,9.157-2.004    C53.767,61.911,64,51.63,64,39z M24,6c-1.103,0-2-0.897-2-2s0.897-2,2-2c5.514,0,10,4.486,10,10v2.095    C33.341,14.035,32.675,14,32,14s-1.341,0.035-2,0.095V12C30,8.691,27.309,6,24,6z M45.218,59.574C50.547,55.555,54,49.174,54,42    h-2c0,11.028-8.972,20-20,20s-20-8.972-20-20h-2c0,7.174,3.453,13.555,8.782,17.574C9.218,57.616,2,49.135,2,39    s7.218-18.616,16.782-20.574C13.453,22.445,10,28.826,10,36h2c0-11.028,8.972-20,20-20s20,8.972,20,20h2    c0-7.174-3.453-13.555-8.782-17.574C54.782,20.384,62,28.865,62,39S54.782,57.616,45.218,59.574z" fill="#260A04"/>
</g>
</g>
</svg>