<?xml version="1.0" encoding="iso-8859-1"?>
<!-- Uploaded to: SVG Repo, www.svgrepo.com, Generator: SVG Repo Mixer Tools -->
<svg height="800px" width="800px" version="1.1" id="Layer_1" xmlns="http://www.w3.org/2000/svg" xmlns:xlink="http://www.w3.org/1999/xlink" 
	 viewBox="0 0 512 512" xml:space="preserve">
<g>
	<path style="fill:#805333;" d="M264.834,494.343c37.967,0.256,185.37-10.593,185.37-194.534
		c0-109.515-53.928-157.502-104.951-178.432l25.503-51.262l-74.09,36.193l38.78-88.655l-24.567,11.873
		c-38.435,21.963-73.763,48.949-105.066,80.252l0,0C148.265,121.086,61.79,161.101,61.79,299.809
		c0,183.94,147.412,194.79,185.379,194.534H264.834z"/>
	<path style="fill:#603B23;" d="M256,432.55c-47.281,0-89.741-24.558-113.567-65.686c-2.445-4.22-1.006-9.622,3.213-12.067
		c4.228-2.445,9.613-0.998,12.058,3.213c20.639,35.619,57.379,56.885,98.295,56.885c40.916,0,77.656-21.266,98.295-56.885
		c2.445-4.211,7.821-5.658,12.058-3.213c4.22,2.445,5.659,7.848,3.213,12.067C345.741,407.991,303.281,432.55,256,432.55"/>
	<g>
		<path style="fill:#FFFFFF;" d="M203.034,229.515c0,14.627-11.855,26.483-26.483,26.483c-14.627,0-26.483-11.855-26.483-26.483
			s11.855-26.483,26.483-26.483C191.179,203.032,203.034,214.888,203.034,229.515"/>
		<path style="fill:#FFFFFF;" d="M361.931,229.515c0,14.627-11.855,26.483-26.483,26.483c-14.627,0-26.483-11.855-26.483-26.483
			s11.855-26.483,26.483-26.483C350.076,203.032,361.931,214.888,361.931,229.515"/>
	</g>
	<g>
		<path style="fill:#603B23;" d="M282.483,308.963c0,9.754-11.855,17.655-26.483,17.655c-14.627,0-26.483-7.901-26.483-17.655
			s11.855-17.655,26.483-17.655C270.627,291.308,282.483,299.209,282.483,308.963"/>
		<path style="fill:#603B23;" d="M450.207,229.009h-9.145c5.8,20.153,9.145,43.573,9.145,70.806c0,19.482-1.677,36.988-4.679,52.78
			h4.679c34.127,0,61.793-27.666,61.793-61.793S484.334,229.009,450.207,229.009"/>
		<path style="fill:#603B23;" d="M61.793,299.813c0-27.251,3.372-50.644,9.172-70.806h-9.172C27.666,229.007,0,256.672,0,290.8
			s27.666,61.793,61.793,61.793h4.679C63.47,336.809,61.793,319.295,61.793,299.813"/>
	</g>
</g>
</svg>