<?xml version="1.0" encoding="iso-8859-1"?>
<!-- Uploaded to: SVG Repo, www.svgrepo.com, Generator: SVG Repo Mixer Tools -->
<svg fill="#000000" height="800px" width="800px" version="1.1" id="Layer_1" xmlns="http://www.w3.org/2000/svg" xmlns:xlink="http://www.w3.org/1999/xlink" 
	 viewBox="0 0 512 512" xml:space="preserve">
<g>
	<g>
		<path d="M478.901,182.825h-26.364V27.464C452.537,12.384,439.153,0,424.004,0H85.876C70.727,0,59.463,12.384,59.463,27.464
			v155.361H30.979c-5.048,0-8.081,4.207-8.081,9.26v63.989c0,5.055,3.033,9.023,8.081,9.023h22.413
			c-2.732,13.712-4.13,27.326-4.13,41.196C49.261,419.701,141.527,512,254.94,512c113.413,0,205.678-92.314,205.678-205.723
			c0-13.866-1.399-27.468-4.132-41.18h22.415c5.048,0,10.201-3.968,10.201-9.023v-63.989
			C489.102,187.032,483.949,182.825,478.901,182.825z M77.745,27.464c0-4.999,3.064-9.181,8.13-9.181h338.128
			c5.066,0,10.251,4.182,10.251,9.181v155.361H77.745V27.464z M254.94,493.717c-103.33,0-187.396-84.11-187.396-187.441
			c0-13.904,1.537-27.468,4.543-41.18h365.704c3.007,13.712,4.545,27.296,4.545,41.196
			C442.336,409.623,358.27,493.717,254.94,493.717z M470.82,246.814h-23.979c-1.243,0-2.55,0-3.868,0H66.956
			c-1.344,0-2.675,0-3.938,0H41.18v-45.706h26.364h374.792h28.484V246.814z"/>
	</g>
</g>
<g>
	<g>
		<path d="M186.38,292.639c-10.083,0-18.283,8.206-18.283,18.283c0,10.081,8.199,18.282,18.283,18.282s18.283-8.202,18.283-18.282
			C204.663,300.845,196.463,292.639,186.38,292.639z"/>
	</g>
</g>
<g>
	<g>
		<path d="M323.499,292.639c-10.083,0-18.283,8.206-18.283,18.283c0,10.081,8.199,18.282,18.283,18.282
			c10.083,0,18.283-8.202,18.283-18.282C341.782,300.845,333.582,292.639,323.499,292.639z"/>
	</g>
</g>
<g>
	<g>
		<path d="M332.641,365.769c-5.048,0-9.141,4.088-9.141,9.141c0,35.28-28.705,63.989-63.989,63.989
			c-35.284,0-63.989-28.709-63.989-63.989c0-5.053-4.093-9.141-9.141-9.141s-9.141,4.088-9.141,9.141
			c0,45.367,36.909,82.271,82.271,82.271c45.363,0,82.271-36.904,82.271-82.271C341.782,369.857,337.689,365.769,332.641,365.769z"
			/>
	</g>
</g>
</svg>