<?xml version="1.0" encoding="iso-8859-1"?>
<!-- Uploaded to: SVG Repo, www.svgrepo.com, Generator: SVG Repo Mixer Tools -->
<svg fill="#000000" height="800px" width="800px" version="1.1" id="Layer_1" xmlns="http://www.w3.org/2000/svg" xmlns:xlink="http://www.w3.org/1999/xlink" 
	 viewBox="0 0 512.001 512.001" xml:space="preserve">
<g>
	<g>
		<path d="M256.001,0C114.841,0,0,114.841,0,256.001s114.841,256.001,256.001,256.001S512.001,397.16,512.001,256.001
			C512,114.841,397.16,0,256.001,0z M256.001,493.701c-131.069,0-237.702-106.631-237.702-237.7S124.932,18.299,256.001,18.299
			s237.702,106.632,237.702,237.7C493.701,387.07,387.068,493.701,256.001,493.701z"/>
	</g>
</g>
<g>
	<g>
		<path d="M393.042,295.723c-3.574-3.573-9.367-3.574-12.941,0c-68.432,68.43-179.778,68.428-248.203,0
			c-3.574-3.573-9.367-3.573-12.94,0c-3.573,3.573-3.573,9.367,0,12.939c37.788,37.786,87.405,56.674,137.042,56.674
			c49.623,0,99.263-18.896,137.042-56.674C396.616,305.089,396.616,299.295,393.042,295.723z"/>
	</g>
</g>
<g>
	<g>
		<path d="M306.189,383.521c-1.364-4.865-6.41-7.704-11.278-6.341c-25.455,7.137-52.366,7.137-77.821,0
			c-4.865-1.368-9.916,1.475-11.28,6.34c-1.364,4.866,1.475,9.916,6.34,11.281c14.345,4.021,29.094,6.031,43.849,6.031
			c14.752,0,29.508-2.01,43.849-6.031C304.714,393.437,307.553,388.386,306.189,383.521z"/>
	</g>
</g>
<g>
	<g>
		<path d="M146.723,164.27c-18.666,0-33.852,15.186-33.852,33.852c0,18.666,15.187,33.852,33.852,33.852
			c18.666,0,33.852-15.186,33.852-33.852C180.575,179.456,165.39,164.27,146.723,164.27z"/>
	</g>
</g>
<g>
	<g>
		<path d="M365.275,164.27c-18.666,0-33.852,15.186-33.852,33.852s15.186,33.852,33.852,33.852s33.852-15.186,33.852-33.852
			S383.942,164.27,365.275,164.27z"/>
	</g>
</g>
<g>
	<g>
		<g>
			<circle cx="155.969" cy="193.507" r="9.15"/>
			<circle cx="374.338" cy="193.507" r="9.15"/>
		</g>
	</g>
</g>
</svg>