<?xml version="1.0" encoding="iso-8859-1"?>
<!-- Uploaded to: SVG Repo, www.svgrepo.com, Generator: SVG Repo Mixer Tools -->
<svg height="800px" width="800px" version="1.1" id="Layer_1" xmlns="http://www.w3.org/2000/svg" xmlns:xlink="http://www.w3.org/1999/xlink" 
	 viewBox="0 0 512 512" xml:space="preserve">
<g transform="translate(1 1)">
	<path style="fill:#FFE100;" d="M502.467,255c0,136.533-110.933,247.467-247.467,247.467S7.533,391.533,7.533,255
		S118.467,7.533,255,7.533S502.467,118.467,502.467,255"/>
	<path style="fill:#FFA800;" d="M255,7.533c-4.267,0-8.533,0-12.8,0C372.76,14.36,476.867,122.733,476.867,255
		S372.76,495.64,242.2,502.467c4.267,0,8.533,0,12.8,0c136.533,0,247.467-110.933,247.467-247.467S391.533,7.533,255,7.533"/>
	<path style="fill:#FFFFFF;" d="M255,7.533c4.267,0,8.533,0,12.8,0C137.24,14.36,33.133,122.733,33.133,255
		S137.24,495.64,267.8,502.467c-4.267,0-8.533,0-12.8,0C118.467,502.467,7.533,391.533,7.533,255S118.467,7.533,255,7.533"/>
	<path style="fill:#E4667F;" d="M357.4,138.947c5.12-10.24,15.36-20.48,28.16-20.48c17.067,0,29.867,13.653,31.573,29.867
		c0,0,0.853,4.267-0.853,11.093c-2.56,10.24-8.533,18.773-16.213,25.6l-42.667,35.84l-41.813-34.987
		c-7.68-6.827-13.653-15.36-16.213-25.6c-2.56-7.68-1.707-11.947-1.707-11.947c1.707-16.213,13.653-29.867,31.573-29.867
		C342.04,118.467,352.28,128.707,357.4,138.947"/>
	<path style="fill:#DD3859;" d="M417.133,148.333c-1.707-16.213-13.653-29.867-31.573-29.867c-4.267,0-8.533,0.853-11.947,3.413
		c10.24,5.12,17.067,15.36,17.92,27.307c0,0,0.853,4.267-0.853,11.093c-2.56,10.24-8.533,18.773-16.213,25.6l-29.013,24.747
		l11.947,10.24l41.813-34.987c7.68-6.827,13.653-15.36,16.213-25.6C417.987,152.6,417.133,148.333,417.133,148.333"/>
	<path style="fill:#E4667F;" d="M152.6,138.947c5.12-10.24,15.36-20.48,28.16-20.48c17.067,0,29.867,13.653,31.573,29.867
		c0,0,0.853,4.267-0.853,11.093c-2.56,10.24-8.533,18.773-16.213,25.6l-42.667,35.84l-41.813-34.987
		c-7.68-6.827-13.653-15.36-16.213-25.6c-2.56-7.68-1.707-11.947-1.707-11.947c1.707-16.213,13.653-29.867,31.573-29.867
		C137.24,118.467,147.48,128.707,152.6,138.947"/>
	<path style="fill:#DD3859;" d="M212.333,148.333c-1.707-16.213-13.653-29.867-31.573-29.867c-4.267,0-8.533,0.853-11.947,3.413
		c10.24,5.12,17.067,15.36,17.92,27.307c0,0,0.853,4.267-0.853,11.093c-2.56,10.24-8.533,18.773-16.213,25.6l-29.013,24.747
		l11.947,10.24l41.813-34.987c7.68-6.827,13.653-15.36,16.213-25.6C213.187,152.6,212.333,148.333,212.333,148.333"/>
	<g>
		<path style="fill:#63D3FD;" d="M101.4,272.067c0,14.507-11.093,25.6-25.6,25.6s-25.6-11.093-25.6-25.6s11.093-25.6,25.6-25.6
			S101.4,257.56,101.4,272.067"/>
		<path style="fill:#63D3FD;" d="M459.8,272.067c0,14.507-11.093,25.6-25.6,25.6c-14.507,0-25.6-11.093-25.6-25.6
			s11.093-25.6,25.6-25.6C448.707,246.467,459.8,257.56,459.8,272.067"/>
	</g>
	<path d="M255,511C114.2,511-1,395.8-1,255S114.2-1,255-1s256,115.2,256,256S395.8,511,255,511z M255,16.067
		C123.587,16.067,16.067,123.587,16.067,255S123.587,493.933,255,493.933S493.933,386.413,493.933,255S386.413,16.067,255,16.067z"
		/>
	<path d="M255,417.133c-54.613,0-104.96-27.307-134.827-71.68c-2.56-4.267-1.707-9.387,2.56-11.947s9.387-1.707,11.947,2.56
		c26.453,40.107,71.68,64,120.32,64s93.867-23.893,120.32-64.853c2.56-4.267,7.68-5.12,11.947-2.56s5.12,7.68,2.56,11.947
		C359.107,389.827,308.76,417.133,255,417.133z"/>
	<path d="M152.6,229.4c-1.707,0-4.267-0.853-5.12-1.707l-41.813-34.987c-9.387-8.533-16.213-18.773-19.627-29.867
		c-2.56-8.533-1.707-13.653-1.707-15.36c2.56-22.187,18.773-37.547,40.107-37.547c11.093,0,21.333,5.973,28.16,13.653
		c6.827-7.68,17.067-13.653,28.16-13.653c20.48,0,37.547,15.36,40.107,37.547c0,1.707,0.853,6.827-0.853,14.507
		c-2.56,11.093-9.387,22.187-19.627,29.867l-41.813,34.987C156.867,228.547,154.307,229.4,152.6,229.4z M101.4,150.04
		c0,0,0,2.56,0.853,7.68c1.707,7.68,6.827,15.36,13.653,21.333l36.693,30.72l36.693-30.72c6.827-5.973,11.947-12.8,13.653-21.333
		c0.853-5.12,0.853-7.68,0.853-7.68c-0.853-11.947-9.387-23.04-23.04-23.04c-9.387,0-17.067,7.68-20.48,15.36
		c-1.707,3.413-4.267,5.12-7.68,5.12s-5.973-1.707-7.68-5.12c-3.413-7.68-11.093-15.36-20.48-15.36
		c-13.653,0-21.333,11.093-23.04,22.187C101.4,150.04,101.4,150.04,101.4,150.04L101.4,150.04z"/>
	<path d="M357.4,229.4c-1.707,0-4.267-0.853-5.12-1.707l-41.813-34.987c-9.387-8.533-16.213-18.773-19.627-29.867
		c-1.707-7.68-1.707-12.8-0.853-14.507c2.56-21.333,19.627-37.547,40.107-37.547c11.093,0,21.333,5.973,28.16,13.653
		c6.827-7.68,17.067-13.653,28.16-13.653c20.48,0,37.547,16.213,40.107,37.547c0,1.707,0.853,6.827-0.853,14.507
		c-2.56,11.093-9.387,22.187-19.627,29.867l-41.813,34.987C361.667,228.547,359.107,229.4,357.4,229.4z M306.2,150.04
		c0,0,0,2.56,0.853,7.68c1.707,7.68,6.827,15.36,13.653,21.333l36.693,30.72l36.693-30.72c6.827-5.973,11.947-12.8,13.653-21.333
		c0.853-5.12,0.853-7.68,0.853-7.68c-0.853-11.947-9.387-23.04-23.04-23.04c-9.387,0-17.067,7.68-20.48,15.36
		c-1.707,3.413-4.267,5.12-7.68,5.12s-5.973-1.707-7.68-5.12c-3.413-7.68-11.093-15.36-20.48-15.36
		c-13.653,0-21.333,11.093-23.04,22.187C306.2,150.04,306.2,150.04,306.2,150.04L306.2,150.04z"/>
	<path d="M75.8,306.2c-18.773,0-34.133-15.36-34.133-34.133s15.36-34.133,34.133-34.133s34.133,15.36,34.133,34.133
		S94.573,306.2,75.8,306.2z M75.8,255c-9.387,0-17.067,7.68-17.067,17.067s7.68,17.067,17.067,17.067s17.067-7.68,17.067-17.067
		S85.187,255,75.8,255z"/>
	<path d="M434.2,306.2c-18.773,0-34.133-15.36-34.133-34.133s15.36-34.133,34.133-34.133s34.133,15.36,34.133,34.133
		S452.973,306.2,434.2,306.2z M434.2,255c-9.387,0-17.067,7.68-17.067,17.067s7.68,17.067,17.067,17.067s17.067-7.68,17.067-17.067
		S443.587,255,434.2,255z"/>
</g>
</svg>