<?xml version="1.0" encoding="iso-8859-1"?>
<!-- Uploaded to: SVG Repo, www.svgrepo.com, Generator: SVG Repo Mixer Tools -->
<svg height="800px" width="800px" version="1.1" id="Layer_1" xmlns="http://www.w3.org/2000/svg" xmlns:xlink="http://www.w3.org/1999/xlink" 
	 viewBox="0 0 512 512" xml:space="preserve">
<path style="fill:#B3404A;" d="M255.996,512c-68.38,0-132.667-26.629-181.02-74.98c-5.669-5.669-5.669-14.862,0-20.533
	c5.669-5.668,14.862-5.668,20.533,0c42.867,42.867,99.863,66.476,160.488,66.476s117.62-23.609,160.488-66.476
	S482.96,316.624,482.96,256s-23.609-117.62-66.476-160.488S316.62,29.036,255.996,29.036S138.376,52.645,95.509,95.512
	c-57.256,57.256-79.728,141.45-58.65,219.728c2.085,7.742-2.501,15.708-10.244,17.795c-7.742,2.083-15.708-2.501-17.793-10.244
	C-2.68,280.078-2.935,234.855,8.086,192.006c11.355-44.152,34.486-84.62,66.892-117.025C123.328,26.629,187.616,0,255.996,0
	c68.381,0,132.668,26.629,181.02,74.98s74.98,112.639,74.98,181.02s-26.629,132.668-74.98,181.02S324.376,512,255.996,512z"/>
<path style="fill:#F4B2B0;" d="M255.996,82.472c-95.836,0-173.528,77.69-173.528,173.528s77.692,173.528,173.528,173.528
	S429.524,351.838,429.524,256S351.832,82.472,255.996,82.472z M192.843,245.837c-13.23,0-23.955-15.817-23.955-35.327
	c0-19.511,10.724-35.327,23.955-35.327s23.955,15.817,23.955,35.327S206.072,245.837,192.843,245.837z M255.996,370.213
	c-24.055,0-43.554-19.501-43.554-43.554c0-24.055,19.499-43.554,43.554-43.554s43.554,19.501,43.554,43.554
	C299.55,350.712,280.05,370.213,255.996,370.213z M319.149,245.837c-13.23,0-23.955-15.817-23.955-35.327
	c0-19.511,10.724-35.327,23.955-35.327s23.955,15.817,23.955,35.327S332.378,245.837,319.149,245.837z"/>
<path style="fill:#B3404A;" d="M255.996,444.044C152.307,444.044,67.95,359.689,67.95,256S152.307,67.956,255.996,67.956
	S444.042,152.311,444.042,256S359.685,444.044,255.996,444.044z M255.996,96.992c-87.678,0-159.01,71.331-159.01,159.008
	s71.331,159.008,159.01,159.008S415.006,343.677,415.006,256S343.673,96.992,255.996,96.992z M255.996,384.731
	c-32.021,0-58.072-26.051-58.072-58.072s26.051-58.072,58.072-58.072s58.072,26.051,58.072,58.072S288.016,384.731,255.996,384.731z
	 M255.996,297.623c-16.01,0-29.036,13.026-29.036,29.036s13.026,29.036,29.036,29.036s29.036-13.026,29.036-29.036
	S272.007,297.623,255.996,297.623z M319.149,260.355c-21.572,0-38.473-21.895-38.473-49.846c0-27.95,16.9-49.845,38.473-49.845
	s38.473,21.895,38.473,49.845C357.622,238.461,340.722,260.355,319.149,260.355z M319.149,189.701
	c-3.239,0-9.437,8.104-9.437,20.809c0,12.706,6.198,20.81,9.437,20.81c3.239,0,9.437-8.104,9.437-20.81
	C328.586,197.805,322.388,189.701,319.149,189.701z M192.843,260.355c-21.574,0-38.473-21.895-38.473-49.846
	c0-27.95,16.899-49.845,38.473-49.845s38.473,21.895,38.473,49.845C231.316,238.461,214.417,260.355,192.843,260.355z
	 M192.843,189.701c-3.24,0-9.437,8.104-9.437,20.809c0,12.706,6.196,20.81,9.437,20.81c3.24,0,9.437-8.104,9.437-20.81
	C202.28,197.805,196.083,189.701,192.843,189.701z"/>
</svg>