<?xml version="1.0" encoding="iso-8859-1"?>
<!-- Uploaded to: SVG Repo, www.svgrepo.com, Generator: SVG Repo Mixer Tools -->
<svg height="800px" width="800px" version="1.1" id="Layer_1" xmlns="http://www.w3.org/2000/svg" xmlns:xlink="http://www.w3.org/1999/xlink" 
	 viewBox="0 0 512 512" xml:space="preserve">
<g transform="translate(1 1)">
	<path style="fill:#FFE100;" d="M502.467,255c0,136.533-110.933,247.467-247.467,247.467S7.533,391.533,7.533,255
		S118.467,7.533,255,7.533S502.467,118.467,502.467,255"/>
	<path style="fill:#FFA800;" d="M255,7.533c-4.267,0-8.533,0-12.8,0C372.76,14.36,476.867,122.733,476.867,255
		S372.76,495.64,242.2,502.467c4.267,0,8.533,0,12.8,0c136.533,0,247.467-110.933,247.467-247.467S391.533,7.533,255,7.533"/>
	<path style="fill:#FFFFFF;" d="M255,7.533c4.267,0,8.533,0,12.8,0C137.24,14.36,33.133,122.733,33.133,255
		S137.24,495.64,267.8,502.467c-4.267,0-8.533,0-12.8,0C118.467,502.467,7.533,391.533,7.533,255S118.467,7.533,255,7.533"/>
	<g>
		<path style="fill:#FFE100;" d="M212.333,152.6c0,28.16-23.04,51.2-51.2,51.2s-51.2-23.04-51.2-51.2s23.04-51.2,51.2-51.2
			S212.333,124.44,212.333,152.6"/>
		<path style="fill:#FFE100;" d="M400.067,152.6c0,28.16-23.04,51.2-51.2,51.2s-51.2-23.04-51.2-51.2s23.04-51.2,51.2-51.2
			C377.027,101.4,400.067,124.44,400.067,152.6"/>
	</g>
	<g>
		<path style="fill:#63D3FD;" d="M186.733,127c0,14.507-11.093,25.6-25.6,25.6s-25.6-11.093-25.6-25.6s11.093-25.6,25.6-25.6
			C175.64,101.4,186.733,112.493,186.733,127"/>
		<path style="fill:#63D3FD;" d="M374.467,127c0,14.507-11.093,25.6-25.6,25.6c-14.507,0-25.6-11.093-25.6-25.6
			s11.093-25.6,25.6-25.6C363.373,101.4,374.467,112.493,374.467,127"/>
		<path style="fill:#63D3FD;" d="M314.733,331.8c0,42.667-26.453,76.8-59.733,76.8s-59.733-34.133-59.733-76.8S221.72,255,255,255
			S314.733,289.133,314.733,331.8"/>
	</g>
	<path style="fill:#3DB9F9;" d="M255,255c-4.267,0-8.533,0.853-12.8,1.707c26.453,7.68,46.933,38.4,46.933,75.093
		s-20.48,67.413-46.933,75.093c4.267,0.853,8.533,1.707,12.8,1.707c33.28,0,59.733-34.133,59.733-76.8S288.28,255,255,255"/>
	<path d="M255,511C114.2,511-1,395.8-1,255S114.2-1,255-1s256,115.2,256,256S395.8,511,255,511z M255,16.067
		C123.587,16.067,16.067,123.587,16.067,255S123.587,493.933,255,493.933S493.933,386.413,493.933,255S386.413,16.067,255,16.067z"
		/>
	<path d="M161.133,212.333c-33.28,0-59.733-26.453-59.733-59.733s26.453-59.733,59.733-59.733s59.733,26.453,59.733,59.733
		S194.413,212.333,161.133,212.333z M161.133,109.933c-23.893,0-42.667,18.773-42.667,42.667s18.773,42.667,42.667,42.667
		S203.8,176.493,203.8,152.6S185.027,109.933,161.133,109.933z"/>
	<path d="M348.867,212.333c-33.28,0-59.733-26.453-59.733-59.733s26.453-59.733,59.733-59.733S408.6,119.32,408.6,152.6
		S382.147,212.333,348.867,212.333z M348.867,109.933c-23.893,0-42.667,18.773-42.667,42.667s18.773,42.667,42.667,42.667
		c23.893,0,42.667-18.773,42.667-42.667S372.76,109.933,348.867,109.933z"/>
	<path d="M161.133,161.133C142.36,161.133,127,145.773,127,127s15.36-34.133,34.133-34.133s34.133,15.36,34.133,34.133
		S179.907,161.133,161.133,161.133z M161.133,109.933c-9.387,0-17.067,7.68-17.067,17.067s7.68,17.067,17.067,17.067
		S178.2,136.387,178.2,127S170.52,109.933,161.133,109.933z"/>
	<path d="M348.867,161.133c-18.773,0-34.133-15.36-34.133-34.133s15.36-34.133,34.133-34.133C367.64,92.867,383,108.227,383,127
		S367.64,161.133,348.867,161.133z M348.867,109.933c-9.387,0-17.067,7.68-17.067,17.067s7.68,17.067,17.067,17.067
		s17.067-7.68,17.067-17.067S358.253,109.933,348.867,109.933z"/>
	<path d="M255,417.133c-37.547,0-68.267-38.4-68.267-85.333s30.72-85.333,68.267-85.333s68.267,38.4,68.267,85.333
		S292.547,417.133,255,417.133z M255,263.533c-28.16,0-51.2,30.72-51.2,68.267s23.04,68.267,51.2,68.267s51.2-30.72,51.2-68.267
		S283.16,263.533,255,263.533z"/>
</g>
</svg>