<?xml version="1.0" encoding="iso-8859-1"?>
<!-- Uploaded to: SVG Repo, www.svgrepo.com, Generator: SVG Repo Mixer Tools -->
<svg fill="#000000" height="800px" width="800px" version="1.1" id="Layer_1" xmlns="http://www.w3.org/2000/svg" xmlns:xlink="http://www.w3.org/1999/xlink" 
	 viewBox="0 0 512 512" xml:space="preserve">
<g>
	<g>
		<path d="M445.55,121.07c-0.867-2.049-1.836-4.043-2.898-5.98C408.211,46.885,337.483,0,255.999,0
			C140.778,0,47.038,93.739,47.038,208.961c0,114.312,92.269,207.462,206.239,208.928v42.781c0,14.144,11.506,25.65,25.65,25.65
			c3.285,0,6.425-0.627,9.314-1.758v1.786c0,14.144,11.506,25.651,25.65,25.651c14.145,0,25.651-11.507,25.651-25.651v-1.786
			c2.89,1.13,6.028,1.758,9.313,1.758c14.144,0,25.651-11.506,25.651-25.65V336.374c0-4.876-1.095-9.499-3.041-13.647
			c13.098-15.96,20.267-35.845,20.267-56.666c0-4.512-3.656-8.169-8.169-8.169H221.011c-4.511,0-8.169,3.656-8.169,8.169
			c0,18.367,5.527,36.018,15.985,51.042c0.516,0.742,1.136,1.366,1.823,1.878l9.51,11.359c0.195,0.233,0.402,0.454,0.621,0.663
			c8.409,8.03,12.497,16.251,12.497,25.131v45.418c-104.962-1.464-189.902-87.287-189.902-192.591
			C63.375,102.747,149.786,16.337,255.999,16.337c57.938,0,109.98,25.715,145.322,66.327c-5.42-1.433-11.105-2.206-16.968-2.206
			c-36.622,0-66.416,29.794-66.416,66.416c0,21.701,10.651,42.08,28.491,54.513c2.246,1.566,5.129,1.899,7.677,0.893
			c9.667-3.828,19.844-5.769,30.248-5.769c10.403,0,20.58,1.941,30.247,5.769c0.971,0.384,1.991,0.573,3.006,0.573
			c1.648,0,3.282-0.498,4.671-1.467c10.281-7.165,18.169-16.973,23.012-28.149c2.18,11.58,3.335,23.519,3.335,35.723
			c0,40.11-12.206,78.552-35.298,111.17c-2.607,3.682-1.735,8.781,1.946,11.387c3.686,2.608,8.782,1.735,11.387-1.946
			c25.058-35.395,38.302-77.101,38.302-120.61C464.961,177.581,457.996,147.803,445.55,121.07z M358.17,460.67
			c0,5.135-4.178,9.313-9.314,9.313c-5.135,0-9.313-4.178-9.313-9.313v-19.918v-6.265c0-4.512-3.656-8.169-8.169-8.169
			s-8.169,3.656-8.169,8.169v6.265v19.918v25.679c0,5.136-4.178,9.314-9.314,9.314c-5.135,0-9.313-4.178-9.313-9.314V375.313
			c0-4.512-3.656-8.169-8.169-8.169s-8.169,3.656-8.169,8.169v85.357c0,5.135-4.178,9.313-9.314,9.313
			c-5.135,0-9.313-4.178-9.313-9.313V356.134c0-12.879-5.46-24.868-16.234-35.658h8.065h10.897c8.766,0,15.899,7.133,15.899,15.899
			c0,4.512,3.656,8.169,8.169,8.169s8.169-3.656,8.169-8.169c0-5.779-1.537-11.203-4.211-15.899h6.939
			c8.767,0,15.899,7.133,15.899,15.899v0.504v55.674v0.004c0,4.512,3.656,8.169,8.169,8.169s8.169-3.656,8.169-8.169v-0.004v-55.674
			v-0.504c0-5.779-1.537-11.203-4.211-15.899h6.939c8.767,0,15.899,7.133,15.899,15.899V460.67z M239.866,304.137
			c-5.585-9.128-9.061-19.29-10.238-29.909h145.315c-1.448,13.001-6.344,25.299-14.21,35.743
			c-5.234-3.672-11.599-5.835-18.463-5.835h-34.965H296.41h-24.068h-10.897H239.866z M416.238,185.474
			c-10.27-3.518-20.974-5.3-31.885-5.3c-10.913,0-21.617,1.782-31.886,5.3c-11.461-9.48-18.193-23.622-18.193-38.599
			c0-27.614,22.466-50.079,50.079-50.079c18.865,0,35.32,10.488,43.858,25.937c0.805,1.6,1.586,3.213,2.346,4.838
			c2.493,5.943,3.874,12.464,3.874,19.304C434.431,161.852,427.699,175.994,416.238,185.474z"/>
	</g>
</g>
<g>
	<g>
		<path d="M221.01,80.46c-36.621-0.002-66.416,29.792-66.416,66.415c0,22.521,11.285,43.326,30.186,55.654
			c1.347,0.879,2.9,1.327,4.463,1.327c1.095,0,2.195-0.22,3.229-0.665c10.29-4.431,21.221-6.677,32.487-6.677
			c9.577,0,18.971,1.638,27.92,4.87c2.575,0.928,5.44,0.509,7.638-1.121c16.849-12.488,26.907-32.444,26.907-53.385
			C287.424,110.254,257.631,80.46,221.01,80.46z M254.016,184.539c-9.392-2.897-19.145-4.364-29.057-4.364
			c-11.938,0-23.565,2.106-34.629,6.268c-12.218-9.467-19.4-23.974-19.4-39.567c0-27.614,22.466-50.079,50.079-50.079
			c27.614-0.001,50.08,22.465,50.08,50.079C271.088,161.511,264.915,175.023,254.016,184.539z"/>
	</g>
</g>
<g>
	<g>
		<circle cx="402.122" cy="347.338" r="8.169"/>
	</g>
</g>
<g>
	<g>
		<path d="M230.812,113.519c-18.392,0-33.356,14.963-33.356,33.356c0,18.393,14.964,33.356,33.356,33.356
			c18.393,0,33.356-14.963,33.356-33.356S249.205,113.519,230.812,113.519z M230.812,163.894c-9.384,0-17.019-7.635-17.019-17.019
			c0-9.384,7.635-17.019,17.019-17.019c9.385,0,17.019,7.635,17.019,17.019C247.831,156.259,240.197,163.894,230.812,163.894z"/>
	</g>
</g>
<g>
	<g>
		<path d="M394.183,113.519c-18.393,0-33.357,14.963-33.357,33.356c0,18.393,14.964,33.356,33.357,33.356
			s33.356-14.963,33.356-33.356S412.577,113.519,394.183,113.519z M394.183,163.894c-9.385,0-17.02-7.635-17.02-17.019
			c0-9.384,7.635-17.019,17.02-17.019s17.019,7.635,17.019,17.019C411.202,156.259,403.567,163.894,394.183,163.894z"/>
	</g>
</g>
</svg>