<?xml version="1.0" encoding="iso-8859-1"?>
<!-- Uploaded to: SVG Repo, www.svgrepo.com, Generator: SVG Repo Mixer Tools -->
<svg fill="#000000" height="800px" width="800px" version="1.1" id="Layer_1" xmlns="http://www.w3.org/2000/svg" xmlns:xlink="http://www.w3.org/1999/xlink" 
	 viewBox="0 0 512.001 512.001" xml:space="preserve">
<g>
	<g>
		<path d="M256.001,0C114.842,0,0.001,114.841,0.001,256.001s114.841,256.001,256.001,256.001
			c141.158,0,255.999-114.841,255.999-256.001S397.159,0,256.001,0z M256.001,493.701c-131.069,0-237.702-106.631-237.702-237.7
			S124.932,18.299,256.001,18.299c131.068,0,237.7,106.632,237.7,237.702S387.069,493.701,256.001,493.701z"/>
	</g>
</g>
<g>
	<g>
		<path d="M380.439,259.72H131.571c-5.053,0-9.15,4.097-9.15,9.15c0,14.661,2.367,29.087,7.034,42.876
			c8.291,24.485,23.287,45.716,43.529,61.758v4.18c0,45.776,37.241,83.017,83.017,83.017s83.017-37.241,83.017-83.017v-4.172
			c20.245-16.042,35.244-37.276,43.536-61.764c4.667-13.788,7.034-28.214,7.034-42.875
			C389.588,263.816,385.492,259.72,380.439,259.72z M320.719,377.681c0,35.686-29.032,64.718-64.718,64.718
			s-64.718-29.032-64.718-64.718v-3.739c7.381-12.08,20.689-19.562,34.866-19.562c7.384,0,14.451,1.96,20.702,5.653v33.275
			c0,5.053,4.097,9.15,9.15,9.15s9.15-4.097,9.15-9.15v-33.276c6.25-3.693,13.313-5.653,20.69-5.653
			c14.17,0,27.479,7.478,34.878,19.562V377.681z M330.677,356.701c-11.137-12.9-27.534-20.619-44.836-20.619
			c-10.624,0-20.819,2.771-29.84,8.066c-9.021-5.296-19.221-8.066-29.852-8.066c-17.307,0-33.701,7.72-44.826,20.612
			c-12.621-10.709-22.679-23.852-29.663-38.728H360.35C353.363,332.845,343.302,345.992,330.677,356.701z M367.121,299.667H144.889
			c-1.954-7.07-3.234-14.306-3.81-21.648H370.93C370.355,285.361,369.075,292.598,367.121,299.667z"/>
	</g>
</g>
<g>
	<g>
		<path d="M362.841,169.827c-18.666,0-33.852,15.186-33.852,33.852s15.186,33.852,33.852,33.852
			c18.666,0,33.852-15.186,33.852-33.852C396.693,185.012,381.506,169.827,362.841,169.827z"/>
	</g>
</g>
<g>
	<g>
		<path d="M211.625,210.236c-10.085-16.88-27.846-26.958-47.51-26.958s-37.425,10.078-47.511,26.958
			c-2.592,4.338-1.176,9.956,3.162,12.547c4.339,2.594,9.956,1.177,12.547-3.161c6.751-11.299,18.639-18.045,31.801-18.045
			s25.05,6.745,31.801,18.045c1.714,2.868,4.749,4.459,7.864,4.458c1.596,0,3.213-0.418,4.683-1.297
			C212.801,220.19,214.216,214.574,211.625,210.236z"/>
	</g>
</g>
<g>
	<g>
		<circle cx="368.849" cy="200.216" r="9.15"/>
	</g>
</g>
</svg>