<?xml version="1.0" encoding="iso-8859-1"?>
<!-- Uploaded to: SVG Repo, www.svgrepo.com, Generator: SVG Repo Mixer Tools -->
<svg fill="#000000" height="800px" width="800px" version="1.1" id="Layer_1" xmlns="http://www.w3.org/2000/svg" xmlns:xlink="http://www.w3.org/1999/xlink" 
	 viewBox="0 0 512 512" xml:space="preserve">
<g>
	<g>
		<path d="M419.404,130.723h-78.979V86.007c12.558-3.567,21.787-15.13,21.787-28.816V29.957C362.213,13.438,348.773,0,332.255,0
			c-16.518,0-29.957,13.438-29.957,29.957v27.234c0,13.686,9.229,25.249,21.787,28.816v44.716H264.17V86.007
			c12.558-3.567,21.787-15.13,21.787-28.816V29.957C285.957,13.438,272.518,0,256,0s-29.957,13.438-29.957,29.957v27.234
			c0,13.686,9.229,25.249,21.787,28.816v44.716h-59.915V86.007c12.558-3.567,21.787-15.13,21.787-28.816V29.957
			C209.702,13.438,196.263,0,179.745,0s-29.957,13.438-29.957,29.957v27.234c0,13.686,9.229,25.249,21.787,28.816v44.716H92.596
			c-4.513,0-8.17,3.658-8.17,8.17v32.681c0,4.512,3.657,8.17,8.17,8.17h24.511v57.191c0,4.512,3.657,8.17,8.17,8.17H128v217.872
			h-2.723c-4.513,0-8.17,3.658-8.17,8.17v24.511h-2.723c-4.513,0-8.17,3.658-8.17,8.17s3.657,8.17,8.17,8.17h283.234
			c4.513,0,8.17-3.658,8.17-8.17s-3.657-8.17-8.17-8.17h-2.723v-24.511c0-4.512-3.657-8.17-8.17-8.17H384V245.106h2.723
			c4.513,0,8.17-3.658,8.17-8.17v-57.191h24.511c4.513,0,8.17-3.658,8.17-8.17v-32.681
			C427.574,134.381,423.917,130.723,419.404,130.723z M318.638,57.192V29.957c0-7.509,6.108-13.617,13.617-13.617
			s13.617,6.108,13.617,13.617v27.234c0,7.509-6.108,13.617-13.617,13.617S318.638,64.7,318.638,57.192z M242.383,57.192V29.957
			c0-7.509,6.108-13.617,13.617-13.617s13.617,6.108,13.617,13.617v27.234c0,7.509-6.108,13.617-13.617,13.617
			S242.383,64.7,242.383,57.192z M166.128,57.192V29.957c0-7.509,6.108-13.617,13.617-13.617s13.617,6.108,13.617,13.617v27.234
			c0,7.509-6.108,13.617-13.617,13.617S166.128,64.7,166.128,57.192z M378.553,495.66H133.447v-16.34h177.021
			c4.513,0,8.17-3.658,8.17-8.17s-3.657-8.17-8.17-8.17H144.34V245.106H367.66v217.872h-24.511c-4.513,0-8.17,3.658-8.17,8.17
			s3.657,8.17,8.17,8.17h35.404V495.66z M378.553,228.766H133.447v-49.021h245.106V228.766z M411.234,163.404H100.766v-16.34
			h310.468V163.404z"/>
	</g>
</g>
<g>
	<g>
		<path d="M354.043,196.085H157.957c-4.513,0-8.17,3.658-8.17,8.17s3.657,8.17,8.17,8.17h196.085c4.513,0,8.17-3.658,8.17-8.17
			S358.556,196.085,354.043,196.085z"/>
	</g>
</g>
<g>
	<g>
		<path d="M343.149,261.447H168.851c-4.513,0-8.17,3.658-8.17,8.17v68.085c0,4.512,3.657,8.17,8.17,8.17s8.17-3.658,8.17-8.17
			v-59.915h157.957v152.511H177.021v-59.915c0-4.512-3.657-8.17-8.17-8.17s-8.17,3.658-8.17,8.17v68.085
			c0,4.512,3.657,8.17,8.17,8.17h174.298c4.513,0,8.17-3.658,8.17-8.17V269.617C351.319,265.105,347.662,261.447,343.149,261.447z"
			/>
	</g>
</g>
</svg>